<svg height="512pt" viewBox="0 0 512 512" width="512pt" xmlns="http://www.w3.org/2000/svg"><path d="m512 511.992188h-512v-78.367188c0-26.914062 16.832031-50.945312 42.128906-60.144531l133.871094-48.6875v-31.457031l-48-64v-96.816407c0-68.113281 51.28125-127.679687 119.230469-132.222656 74.53125-5.007813 136.769531 54.222656 136.769531 127.695313v101.328124l-48 64v31.472657l133.871094 48.6875c25.296875 9.183593 42.128906 33.214843 42.128906 60.144531zm0 0" fill="#64ccf4"/><path d="m288 223.992188h-64v-96h32v64h32zm0 0" fill="#40a2e7"/><path d="m336 324.792969v-31.457031l48-64v-5.34375c-88.222656 0-160 71.777343-160 160 0 35.632812 11.96875 68.351562 31.761719 94.925781h-255.761719v33.074219h512v-123.199219zm0 0" fill="#43ade8"/><path d="m512 383.992188c0 70.691406-57.308594 128-128 128s-128-57.308594-128-128c0-70.691407 57.308594-128 128-128s128 57.308593 128 128zm0 0" fill="#ffcb5a"/><g fill="#fff"><path d="m448 367.992188h-48v-48h-32v48h-48v32h48v48h32v-48h48zm0 0"/><path d="m288 47.992188h32v32h-32zm0 0"/></g></svg>